<svg width="83" height="50" viewBox="0 0 83 50" fill="none" xmlns="http://www.w3.org/2000/svg">
<path d="M12.1401 48.0694V46.7897C12.1401 46.2416 11.9764 45.7881 11.6481 45.4292C11.3208 45.0714 10.8555 44.8308 10.2531 44.7095C10.4286 44.6642 10.6248 44.5971 10.8417 44.5094C11.0586 44.4217 11.2607 44.3024 11.447 44.1496C11.6333 43.9977 11.7901 43.8084 11.9153 43.5837C12.0415 43.3589 12.1036 43.0868 12.1036 42.7664V42.652C12.1036 42.2636 12.0238 41.9323 11.864 41.6573C11.7043 41.3832 11.4756 41.1604 11.1779 40.9888C10.8801 40.8173 10.5183 40.6911 10.0914 40.6112C9.66455 40.5314 9.18443 40.491 8.65107 40.491H0V48.9961H3.85182V46.1844H6.58369C7.20873 46.1844 7.64449 46.3126 7.89293 46.5669C8.14039 46.8223 8.26461 47.1782 8.26461 47.6356V48.653C8.26461 48.8285 8.29123 48.9429 8.34446 48.9961H12.2998V48.9271C12.2545 48.8512 12.216 48.7516 12.1854 48.6294C12.1549 48.5081 12.1401 48.3208 12.1401 48.0694ZM8.13842 43.3254C8.13842 43.5008 8.07335 43.6477 7.9442 43.7651C7.81406 43.8834 7.58928 43.9425 7.26986 43.9425H3.85182V42.6964H7.26986C7.59027 42.6964 7.81505 42.7555 7.9442 42.8738C8.07335 42.9921 8.13842 43.139 8.13842 43.3135V43.3254Z" fill="white"/>
<path d="M18.9528 45.795H24.943V43.5768H18.9528V42.7427H25.0337V40.491H15.1582V48.9961H25.0909V46.7207H18.9528V45.795Z" fill="white"/>
<path d="M34.4987 46.0582L31.9265 40.491H27.5601L31.7096 48.9961H37.0708L40.9226 40.491H36.9219L34.4987 46.0582Z" fill="white"/>
<path d="M51.385 40.491H43.563V42.7427H49.6449V43.5768H43.6547V45.795H49.6449V46.7207H43.5059V48.9961H51.385L53.4396 46.9416V45.7703L52.4123 44.7431L53.4396 43.7158V42.5455L51.385 40.491Z" fill="url(#paint0_linear_194_201)"/>
<path d="M68.7854 42.4224C68.6287 42.1631 68.4098 41.9077 68.1278 41.6563C67.8459 41.4049 67.4781 41.1801 67.0246 40.982C66.5711 40.7838 66.0171 40.6261 65.3615 40.5078C64.7059 40.3895 63.925 40.3303 63.018 40.3303H62.5951C61.6575 40.3303 60.8521 40.3954 60.1777 40.5245C59.5034 40.6537 58.9296 40.8272 58.4574 41.0451C57.9851 41.262 57.6056 41.5134 57.3197 41.7993C57.0338 42.0852 56.811 42.3839 56.6512 42.6964C56.4915 43.0089 56.3841 43.3254 56.3308 43.6448C56.2776 43.9653 56.251 44.2659 56.251 44.5479V44.891C56.251 45.173 56.2796 45.4736 56.3367 45.7941C56.3939 46.1145 56.5024 46.4319 56.6621 46.7484C56.8218 47.0648 57.0466 47.3675 57.3364 47.6574C57.6263 47.9472 58.0068 48.2025 58.4791 48.4234C58.9513 48.6442 59.5251 48.8217 60.1994 48.9548C60.8738 49.0879 61.6723 49.1549 62.5941 49.1549H63.0171C63.9162 49.1549 64.696 49.0938 65.3546 48.9715C66.0141 48.8503 66.5702 48.6896 67.0237 48.4914C67.4772 48.2933 67.8449 48.0685 68.1269 47.8171C68.4088 47.5657 68.6277 47.3064 68.7844 47.0402C68.9402 46.773 69.0457 46.5167 69.0989 46.2683C69.1522 46.0208 69.1788 45.798 69.1788 45.5998V45.3603H65.2353C65.2274 45.4056 65.1988 45.4973 65.1495 45.6343C65.1002 45.7714 64.9908 45.9124 64.8242 46.0573C64.6566 46.2022 64.4111 46.3314 64.0867 46.4457C63.7624 46.5601 63.3227 46.6173 62.7666 46.6173C62.2481 46.6173 61.8232 46.5581 61.4919 46.4398C61.1606 46.3215 60.9014 46.1707 60.714 45.9883C60.5277 45.8059 60.3995 45.6057 60.3315 45.3879C60.2625 45.171 60.229 44.959 60.229 44.754V44.6169C60.229 44.4109 60.2615 44.2019 60.3266 43.9879C60.3907 43.775 60.5149 43.5837 60.6983 43.4161C60.8807 43.2485 61.138 43.1115 61.4702 43.005C61.8015 42.8985 62.2303 42.8453 62.7558 42.8453C63.3039 42.8453 63.7387 42.8966 64.0591 42.9991C64.3795 43.1016 64.625 43.2199 64.7966 43.353C64.9681 43.4861 65.0805 43.6182 65.1337 43.7474C65.187 43.8775 65.2215 43.9682 65.2363 44.0214H69.1798V43.8617C69.1798 43.6636 69.1532 43.4388 69.0999 43.1874C69.0467 42.937 68.9412 42.6816 68.7854 42.4224Z" fill="white"/>
<path d="M71.7974 40.491V43.1548H75.4668V48.9961H79.3304V43.1548H82.9999V40.491H71.7974Z" fill="white"/>
<path d="M47.7918 19.2059L49.3327 20.8671L49.3101 20.874L45.3685 27.646L45.3646 27.6489H45.3616L31.9665 35.9185L36.7342 23.7853L22.436 0.619141L36.6948 7.2186L40.8266 11.6817L27.881 5.0339L41.498 22.6801L47.7918 19.2059Z" fill="url(#paint1_linear_194_201)"/>
<path d="M60.563 18.2684L48.3874 25.7847L51.6319 20.3357L51.6191 20.3426L50.227 18.8392L55.7992 19.3706L46.1149 14.3978L41.5464 9.46448L60.563 18.2684Z" fill="url(#paint2_linear_194_201)"/>
<defs>
<linearGradient id="paint0_linear_194_201" x1="43.8005" y1="41.7667" x2="54.1055" y2="43.7283" gradientUnits="userSpaceOnUse">
<stop stop-color="#FF4701"/>
<stop offset="0.354167" stop-color="#FB580A"/>
<stop offset="0.6875" stop-color="#F86913"/>
<stop offset="1" stop-color="#F18622"/>
</linearGradient>
<linearGradient id="paint1_linear_194_201" x1="23.2338" y1="5.91404" x2="51.7078" y2="9.4499" gradientUnits="userSpaceOnUse">
<stop stop-color="#FF4701"/>
<stop offset="0.354167" stop-color="#FB580A"/>
<stop offset="0.6875" stop-color="#F86913"/>
<stop offset="1" stop-color="#F18622"/>
</linearGradient>
<linearGradient id="paint2_linear_194_201" x1="42.1104" y1="11.9125" x2="61.8411" y2="15.6593" gradientUnits="userSpaceOnUse">
<stop stop-color="#FF4701"/>
<stop offset="0.354167" stop-color="#FB580A"/>
<stop offset="0.6875" stop-color="#F86913"/>
<stop offset="1" stop-color="#F18622"/>
</linearGradient>
</defs>
</svg>
