<svg width="173" height="38" viewBox="0 0 173 38" fill="none" xmlns="http://www.w3.org/2000/svg">
<path d="M68.7427 23.9354V22.0354C68.7695 21.2937 68.5102 20.5704 68.0193 20.0173C67.5385 19.4848 66.8542 19.1305 65.9644 18.9482C66.2587 18.868 66.5477 18.769 66.8296 18.6519C67.152 18.5204 67.4528 18.3402 67.7214 18.1173C68.0025 17.8845 68.2368 17.5997 68.4118 17.2782C68.6062 16.905 68.7018 16.4875 68.6892 16.0661V15.8962C68.7048 15.3814 68.5827 14.8718 68.3358 14.4209C68.0926 14.0059 67.7444 13.6634 67.3268 13.4285C66.8292 13.1521 66.2886 12.963 65.7281 12.869C65.0288 12.7443 64.3196 12.6847 63.6095 12.6908H50.8691V25.3071H56.5509V21.1466H60.5703C61.4896 21.1466 62.1314 21.3358 62.4958 21.7143C62.8602 22.0928 63.0424 22.6211 63.0424 23.2993V24.8098C63.0203 24.9877 63.0619 25.1676 63.1595 25.3174H68.979V25.2159C68.9014 25.0781 68.8446 24.9293 68.8105 24.7746C68.756 24.4984 68.7332 24.2168 68.7427 23.9354ZM62.8574 16.8907C62.8592 17.0138 62.8346 17.1359 62.7853 17.2485C62.736 17.3611 62.6632 17.4617 62.5718 17.5434C62.3814 17.7202 62.0505 17.8079 61.5793 17.8065H56.5509V15.9666H61.5793C62.0492 15.9666 62.38 16.0543 62.5718 16.2298C62.6635 16.3112 62.7365 16.4117 62.7859 16.5244C62.8352 16.6371 62.8596 16.7593 62.8574 16.8824V16.8907Z" fill="white"/>
<path d="M78.7663 20.5602H87.5797V17.2699H78.7663V16.0329H87.7153V12.6908H73.1831V25.3091H87.7975V21.9339H78.7663V20.5602Z" fill="white"/>
<path d="M101.639 20.9497L97.8563 12.6908H91.4307L97.5358 25.3091H105.425L111.092 12.6908H105.205L101.639 20.9497Z" fill="white"/>
<path d="M126.485 12.6908H114.976V16.0329H123.925V17.2699H115.111V20.5602H123.925V21.9339H114.894V25.3091H126.485L129.508 22.2613V20.525L127.996 19L129.508 17.4771V15.7387L126.485 12.6908Z" fill="white"/>
<path d="M152.087 15.5522C151.822 15.1274 151.496 14.7447 151.119 14.4168C150.633 13.9995 150.086 13.6618 149.496 13.416C148.71 13.0872 147.888 12.8508 147.048 12.7116C145.909 12.5214 144.755 12.432 143.6 12.4443H142.984C141.792 12.4286 140.601 12.5257 139.427 12.7344C138.555 12.8875 137.705 13.1463 136.895 13.5051C136.276 13.7755 135.71 14.1544 135.222 14.624C134.827 15.0131 134.495 15.4627 134.238 15.9563C134.01 16.3977 133.851 16.8724 133.768 17.3632C133.691 17.8058 133.651 18.2543 133.648 18.7037V19.2114C133.652 19.6611 133.694 20.1097 133.776 20.5519C133.865 21.0448 134.027 21.5217 134.255 21.9671C134.512 22.4673 134.847 22.9227 135.247 23.3159C135.738 23.7897 136.307 24.1739 136.928 24.4514C137.738 24.8148 138.588 25.0798 139.46 25.2408C140.622 25.453 141.802 25.5522 142.984 25.5371H143.6C144.753 25.5508 145.904 25.46 147.04 25.2657C147.886 25.1235 148.714 24.8844 149.506 24.5529C150.097 24.3087 150.645 23.9709 151.129 23.5521C151.51 23.2214 151.836 22.8327 152.097 22.4001C152.309 22.0447 152.465 21.6581 152.56 21.2543C152.633 20.9292 152.672 20.5973 152.677 20.2639V19.9075H146.863C146.832 20.0485 146.79 20.187 146.738 20.3219C146.632 20.5659 146.467 20.7795 146.259 20.9435C145.935 21.2004 145.568 21.3956 145.174 21.5195C144.545 21.7111 143.888 21.7972 143.23 21.7744C142.596 21.7937 141.962 21.7047 141.356 21.5112C140.931 21.3743 140.541 21.146 140.212 20.842C139.954 20.5966 139.76 20.2904 139.649 19.9511C139.551 19.6472 139.499 19.3299 139.497 19.0104V18.8032C139.499 18.4869 139.547 18.1727 139.641 17.8708C139.742 17.5426 139.931 17.2488 140.187 17.0213C140.518 16.7384 140.906 16.5307 141.323 16.4121C141.938 16.2359 142.575 16.1555 143.214 16.1738C143.861 16.1531 144.507 16.2306 145.131 16.4038C145.52 16.5152 145.887 16.6925 146.216 16.928C146.428 17.0782 146.599 17.2799 146.713 17.5144C146.792 17.7071 146.841 17.8418 146.863 17.9288H152.667V17.6905C152.662 17.3545 152.622 17.0198 152.549 16.6918C152.458 16.2891 152.302 15.9042 152.087 15.5522Z" fill="white"/>
<path d="M156.518 12.6908V16.6442H161.918V25.3091H167.602V16.6442H173V12.6908H156.518Z" fill="white"/>
<path d="M27.0713 20.0091L28.7172 21.7972L28.6926 21.8055L24.4841 29.0947L24.48 29.0988H24.4759L10.1759 38L15.2659 24.9403L0 0L15.2227 7.1048L19.6346 11.9097L5.81331 4.75311L20.3517 23.749L27.0713 20.0091Z" fill="white"/>
<path d="M40.7057 19L27.7064 27.0911L31.171 21.2253L31.1566 21.2336L29.6709 19.6154L35.6199 20.1872L25.2817 14.8333L20.4033 9.5228L40.7057 19Z" fill="white"/>
</svg>
